# xmcd
#
# Track frame offsets:
#	150
#	10193
#	22309
#	31899
#	41194
#	52284
#	61785
#	71649
#	81389
#	92494
#	102227
#	115033
#	125203
#	135496
#	146884
#	157495
#	168464
#	175456
#
# Disc length: 2478 seconds
#
# Revision: 1
# Processed by: cddbd v1.5.2PL0 Copyright (c) Steve Scherf et al.
# Submitted via: audiograbber 1.83.01
#
DISCID=1009ac12
DTITLE=Roy Orbison - The Solid Gold Collection CD1
DYEAR=1900
DGENRE=
TTITLE0=Ooby Dooby
TTITLE1=Tryin To Get To You
TTITLE2=Go Go Go
TTITLE3=Rock House
TTITLE4=Rockabilly Gal ft. Hayden Thompson
TTITLE5=You´re My Baby
TTITLE6=Sweet And Easy To Love
TTITLE7=Devil Doll
TTITLE8=Fools Hall Of Fame
TTITLE9=Find My Baby For Me ft. Sonny Burgess
TTITLE10=It´s Too Late
TTITLE11=Domino
TTITLE12=Chicken Hearted
TTITLE13=I Like Love
TTITLE14=I Never Knew
TTITLE15=The Cause Of It All
TTITLE16=You Tell Me
TTITLE17=A True Love Goodbye
EXTD=
EXTT0=
EXTT1=
EXTT2=
EXTT3=
EXTT4=
EXTT5=
EXTT6=
EXTT7=
EXTT8=
EXTT9=
EXTT10=
EXTT11=
EXTT12=
EXTT13=
EXTT14=
EXTT15=
EXTT16=
EXTT17=
PLAYORDER=
